
<svg width="156px" height="51px" viewBox="0 0 156 51" version="1.1" xmlns="http://www.w3.org/2000/svg" xmlns:xlink="http://www.w3.org/1999/xlink">
    <!-- Generator: Sketch 48.1 (47250) - http://www.bohemiancoding.com/sketch -->
    <desc>Created with Sketch.</desc>
    <defs>
        <linearGradient x1="0%" y1="0%" x2="100%" y2="100%" id="linearGradient-1">
            <stop stop-color="#FF846A" offset="0%"></stop>
            <stop stop-color="#F05D73" offset="100%"></stop>
        </linearGradient>
    </defs>
    <g id="Website" stroke="none" stroke-width="1" fill="none" fill-rule="evenodd">
        <g id="Home" transform="translate(-43.000000, -38.000000)">
            <g id="Header" transform="translate(43.000000, 38.000000)">
                <g id="Group-14">
                    <rect id="Rectangle-3" fill="url(#linearGradient-1)" x="0" y="0" width="51" height="51" rx="17"></rect>
                    <path d="M34,38 L24,38 L20,38 L20,20 L24,20 L24,34 L34,34 L34,13 L38,13 L38,38 L34,38 Z M27,17 L17,17 L17,38 L13,38 L13,13 L17,13 L31,13 L31,17 L31,31 L27,31 L27,17 Z" id="narrative-black-25x25" fill="#FFFFFF"></path>
                    <path d="M64.804,32 L64.804,16.27 L68.302,16.27 L74.924,27.644 L74.924,16.27 L77.586,16.27 L77.586,32 L74.55,32 L67.466,19.944 L67.466,32 L64.804,32 Z M83.5113334,32.22 C81.3993334,32.22 79.6613334,31.208 79.6613334,28.81 C79.6613334,26.126 82.2573334,25.158 85.5573334,25.158 L86.9873334,25.158 L86.9873334,24.564 C86.9873334,23.024 86.4593334,22.254 84.8973334,22.254 C83.5113334,22.254 82.8293334,22.914 82.6973334,24.058 L80.1233334,24.058 C80.3433334,21.374 82.4773334,20.252 85.0513334,20.252 C87.6253334,20.252 89.6493334,21.308 89.6493334,24.454 L89.6493334,32 L87.0313334,32 L87.0313334,30.592 C86.2833334,31.582 85.2713334,32.22 83.5113334,32.22 Z M84.1493334,30.306 C85.7773334,30.306 86.9873334,29.448 86.9873334,27.974 L86.9873334,26.83 L85.6233334,26.83 C83.5993334,26.83 82.3013334,27.292 82.3013334,28.7 C82.3013334,29.668 82.8293334,30.306 84.1493334,30.306 Z M92.3406668,32 L92.3406668,20.494 L95.0026668,20.494 L95.0026668,22.65 C95.7286668,21.198 96.8066668,20.34 98.7426668,20.318 L98.7426668,22.804 C96.4106668,22.826 95.0026668,23.574 95.0026668,26.016 L95.0026668,32 L92.3406668,32 Z M100.708,32 L100.708,20.494 L103.37,20.494 L103.37,22.65 C104.096,21.198 105.174,20.34 107.11,20.318 L107.11,22.804 C104.778,22.826 103.37,23.574 103.37,26.016 L103.37,32 L100.708,32 Z M111.869334,32.22 C109.757334,32.22 108.019334,31.208 108.019334,28.81 C108.019334,26.126 110.615334,25.158 113.915334,25.158 L115.345334,25.158 L115.345334,24.564 C115.345334,23.024 114.817334,22.254 113.255334,22.254 C111.869334,22.254 111.187334,22.914 111.055334,24.058 L108.481334,24.058 C108.701334,21.374 110.835334,20.252 113.409334,20.252 C115.983334,20.252 118.007334,21.308 118.007334,24.454 L118.007334,32 L115.389334,32 L115.389334,30.592 C114.641334,31.582 113.629334,32.22 111.869334,32.22 Z M112.507334,30.306 C114.135334,30.306 115.345334,29.448 115.345334,27.974 L115.345334,26.83 L113.981334,26.83 C111.957334,26.83 110.659334,27.292 110.659334,28.7 C110.659334,29.668 111.187334,30.306 112.507334,30.306 Z M124.614667,32.198 C122.326667,32.198 121.138667,30.966 121.138667,28.788 L121.138667,22.496 L119.598667,22.496 L119.598667,20.494 L121.138667,20.494 L121.138667,17.964 L123.800667,17.964 L123.800667,20.494 L126.330667,20.494 L126.330667,22.496 L123.800667,22.496 L123.800667,28.546 C123.800667,29.558 124.284667,30.02 125.120667,30.02 C125.648667,30.02 126.044667,29.954 126.418667,29.8 L126.418667,31.912 C126.000667,32.066 125.428667,32.198 124.614667,32.198 Z M128.516,32 L128.516,20.494 L131.178,20.494 L131.178,32 L128.516,32 Z M129.814,18.602 C128.934,18.602 128.23,17.942 128.23,17.084 C128.23,16.204 128.934,15.544 129.814,15.544 C130.694,15.544 131.398,16.204 131.398,17.084 C131.398,17.942 130.694,18.602 129.814,18.602 Z M137.059334,32 L132.857334,20.494 L135.717334,20.494 L138.731334,29.272 L141.701334,20.494 L144.319334,20.494 L140.161334,32 L137.059334,32 Z M150.552667,32.22 C147.164667,32.22 144.722667,29.998 144.722667,26.368 L144.722667,26.192 C144.722667,22.628 147.164667,20.252 150.442667,20.252 C153.302667,20.252 155.876667,21.946 155.876667,26.06 L155.876667,26.83 L147.450667,26.83 C147.538667,29.008 148.638667,30.24 150.618667,30.24 C152.224667,30.24 153.060667,29.602 153.258667,28.48 L155.832667,28.48 C155.458667,30.9 153.500667,32.22 150.552667,32.22 Z M147.494667,25.048 L153.236667,25.048 C153.104667,23.068 152.092667,22.188 150.442667,22.188 C148.836667,22.188 147.758667,23.266 147.494667,25.048 Z" id="Narrative" fill="#F46771"></path>
                </g>
            </g>
        </g>
    </g>
</svg>